<?xml version="1.0" encoding="UTF-8" standalone="no"?>
<!-- Created with Inkscape (http://www.inkscape.org/) -->

<svg
   xmlns:dc="http://purl.org/dc/elements/1.1/"
   xmlns:cc="http://creativecommons.org/ns#"
   xmlns:rdf="http://www.w3.org/1999/02/22-rdf-syntax-ns#"
   xmlns:svg="http://www.w3.org/2000/svg"
   xmlns="http://www.w3.org/2000/svg"
   xmlns:sodipodi="http://sodipodi.sourceforge.net/DTD/sodipodi-0.dtd"
   xmlns:inkscape="http://www.inkscape.org/namespaces/inkscape"
   width="2160"
   height="1052.1"
   id="svg2"
   version="1.1"
   inkscape:version="0.48.3.1 r9886"
   sodipodi:docname="sorting_challenges.svg"
   inkscape:export-filename="/home/sam/src/quickshop/proposal/img/sorting_challenges.png"
   inkscape:export-xdpi="90"
   inkscape:export-ydpi="90">
  <defs
     id="defs4">
    <marker
       inkscape:stockid="Arrow1Mstart"
       orient="auto"
       refY="0"
       refX="0"
       id="Arrow1Mstart"
       style="overflow:visible">
      <path
         id="path3829"
         d="M 0,0 5,-5 -12.5,0 5,5 0,0 z"
         style="fill-rule:evenodd;stroke:#000000;stroke-width:1pt"
         transform="matrix(0.4,0,0,0.4,4,0)"
         inkscape:connector-curvature="0" />
    </marker>
    <marker
       inkscape:stockid="Arrow1Sstart"
       orient="auto"
       refY="0"
       refX="0"
       id="Arrow1Sstart"
       style="overflow:visible">
      <path
         id="path3835"
         d="M 0,0 5,-5 -12.5,0 5,5 0,0 z"
         style="fill-rule:evenodd;stroke:#000000;stroke-width:1pt"
         transform="matrix(0.2,0,0,0.2,1.2,0)"
         inkscape:connector-curvature="0" />
    </marker>
    <marker
       inkscape:stockid="Arrow1Mend"
       orient="auto"
       refY="0"
       refX="0"
       id="Arrow1Mend"
       style="overflow:visible">
      <path
         id="path3832"
         d="M 0,0 5,-5 -12.5,0 5,5 0,0 z"
         style="fill-rule:evenodd;stroke:#000000;stroke-width:1pt"
         transform="matrix(-0.4,0,0,-0.4,-4,0)"
         inkscape:connector-curvature="0" />
    </marker>
  </defs>
  <sodipodi:namedview
     id="base"
     pagecolor="#ffffff"
     bordercolor="#666666"
     borderopacity="1.0"
     inkscape:pageopacity="0.0"
     inkscape:pageshadow="2"
     inkscape:zoom="0.92335468"
     inkscape:cx="484.78225"
     inkscape:cy="689.3275"
     inkscape:document-units="px"
     inkscape:current-layer="layer1"
     showgrid="false"
     inkscape:snap-bbox="true"
     inkscape:snap-bbox-midpoints="true"
     inkscape:snap-center="false"
     inkscape:snap-object-midpoints="false"
     inkscape:bbox-paths="true"
     inkscape:snap-global="false"
     inkscape:window-width="1366"
     inkscape:window-height="721"
     inkscape:window-x="-2"
     inkscape:window-y="-3"
     inkscape:window-maximized="1"
     units="in" />
  <metadata
     id="metadata7">
    <rdf:RDF>
      <cc:Work
         rdf:about="">
        <dc:format>image/svg+xml</dc:format>
        <dc:type
           rdf:resource="http://purl.org/dc/dcmitype/StillImage" />
        <dc:title></dc:title>
      </cc:Work>
    </rdf:RDF>
  </metadata>
  <g
     inkscape:label="Layer 1"
     inkscape:groupmode="layer"
     id="layer1"
     transform="translate(0,-0.25975)">
    <g
       id="g5831"
       transform="matrix(0.59294977,0,0,0.59294977,87.470439,100.53369)"
       inkscape:export-filename="/home/sam/src/quickshop/proposal/img/not-static.png"
       inkscape:export-xdpi="90"
       inkscape:export-ydpi="90">
      <rect
         style="fill:#cccccc;fill-rule:evenodd;stroke:none"
         id="rect4445"
         width="79.005737"
         height="223.07503"
         x="167.92284"
         y="449.15527" />
      <rect
         y="449.15527"
         x="318.14938"
         height="223.07503"
         width="79.005737"
         id="rect4447"
         style="fill:#cccccc;fill-rule:evenodd;stroke:none" />
      <rect
         style="fill:#cccccc;fill-rule:evenodd;stroke:none"
         id="rect4449"
         width="79.005737"
         height="223.07503"
         x="468.37589"
         y="449.15527" />
      <g
         transform="matrix(0.92947927,0,0,0.92947927,-67.163697,472.58779)"
         id="g4457">
        <path
           transform="translate(-5.1711426,59.599)"
           d="m 434.3656,103.32387 c 0,8.08943 -6.55778,14.64721 -14.64722,14.64721 -8.08943,0 -14.64721,-6.55778 -14.64721,-14.64721 0,-8.089434 6.55778,-14.647214 14.64721,-14.647214 8.08944,0 14.64722,6.55778 14.64722,14.647214 z"
           sodipodi:ry="14.647212"
           sodipodi:rx="14.647212"
           sodipodi:cy="103.32387"
           sodipodi:cx="419.71838"
           id="path4459"
           style="fill:#ffaaaa;stroke:none"
           sodipodi:type="arc" />
        <text
           sodipodi:linespacing="125%"
           id="text4461"
           y="171.50917"
           x="406.49579"
           style="font-size:23.5562458px;font-style:normal;font-weight:normal;line-height:125%;letter-spacing:0px;word-spacing:0px;fill:#000000;fill-opacity:1;stroke:none;font-family:Sans"
           xml:space="preserve"><tspan
             y="171.50917"
             x="406.49579"
             id="tspan4463"
             sodipodi:role="line">C</tspan></text>
      </g>
      <g
         transform="matrix(0.92947927,0,0,0.92947927,11.842041,339.85893)"
         id="g4465">
        <path
           transform="translate(-5.1711426,59.599)"
           d="m 434.3656,103.32387 c 0,8.08943 -6.55778,14.64721 -14.64722,14.64721 -8.08943,0 -14.64721,-6.55778 -14.64721,-14.64721 0,-8.089434 6.55778,-14.647214 14.64721,-14.647214 8.08944,0 14.64722,6.55778 14.64722,14.647214 z"
           sodipodi:ry="14.647212"
           sodipodi:rx="14.647212"
           sodipodi:cy="103.32387"
           sodipodi:cx="419.71838"
           id="path4467"
           style="fill:#ffaaaa;stroke:none"
           sodipodi:type="arc" />
        <text
           sodipodi:linespacing="125%"
           id="text4469"
           y="171.50917"
           x="406.49579"
           style="font-size:23.5562458px;font-style:normal;font-weight:normal;line-height:125%;letter-spacing:0px;word-spacing:0px;fill:#000000;fill-opacity:1;stroke:none;font-family:Sans"
           xml:space="preserve"><tspan
             y="171.50917"
             x="406.49579"
             id="tspan4471"
             sodipodi:role="line">A</tspan></text>
      </g>
      <g
         id="g4473"
         transform="matrix(0.92947927,0,0,0.92947927,-67.163697,339.85893)">
        <path
           sodipodi:type="arc"
           style="fill:#ffaaaa;stroke:none"
           id="path4475"
           sodipodi:cx="419.71838"
           sodipodi:cy="103.32387"
           sodipodi:rx="14.647212"
           sodipodi:ry="14.647212"
           d="m 434.3656,103.32387 c 0,8.08943 -6.55778,14.64721 -14.64722,14.64721 -8.08943,0 -14.64721,-6.55778 -14.64721,-14.64721 0,-8.089434 6.55778,-14.647214 14.64721,-14.647214 8.08944,0 14.64722,6.55778 14.64722,14.647214 z"
           transform="translate(-5.1711426,59.599)" />
        <text
           xml:space="preserve"
           style="font-size:23.5562458px;font-style:normal;font-weight:normal;line-height:125%;letter-spacing:0px;word-spacing:0px;fill:#000000;fill-opacity:1;stroke:none;font-family:Sans"
           x="406.49579"
           y="171.50917"
           id="text4477"
           sodipodi:linespacing="125%"><tspan
             sodipodi:role="line"
             id="tspan4479"
             x="406.49579"
             y="171.50917">D</tspan></text>
      </g>
      <path
         style="fill:none;stroke:#000000;stroke-width:0.92947924;stroke-linecap:butt;stroke-linejoin:miter;stroke-miterlimit:4;stroke-opacity:1;stroke-dasharray:0.92947927, 3.71791708;stroke-dashoffset:0;marker-mid:url(#Arrow1Mend);marker-end:url(#Arrow1Mend)"
         d="m 530.35869,432.01889 c -68.38312,-5.97522 -71.70268,2.65565 -78.34182,11.28653 -6.63914,8.63088 -6.63913,24.56481 -0.66391,43.81831 7.30305,12.61437 -4.7407,29.00375 -21.24525,27.88439 -12.568,-0.85237 -17.26176,-23.9009 -11.95044,-35.85135 5.3113,-11.95044 8.98754,-29.69602 2.65565,-37.17917 -14.47258,-17.10396 -47.80179,-18.58958 -64.39963,-19.2535 -16.63757,-0.66551 -55.76876,3.31957 -65.72747,10.62262 -9.95871,7.30305 -21.2777,18.98521 -23.9009,43.81831 -2.62319,24.83309 18.5896,33.8596 24.56482,51.12136 14.81349,40.64279 -8.30823,44.47703 -9.95871,86.9727 -1.65049,42.49566 -1.58757,48.88849 11.95045,69.71096 14.25139,21.91968 -23.52486,14.42524 -65.06355,13.27827"
         id="path4481"
         inkscape:connector-curvature="0"
         sodipodi:nodetypes="cscssssszczsc" />
    </g>
    <g
       id="g5572"
       transform="matrix(0.55240612,0,0,0.55240612,-87.883421,104.23428)"
       inkscape:export-filename="/home/sam/src/quickshop/proposal/img/frozen.png"
       inkscape:export-xdpi="90"
       inkscape:export-ydpi="90">
      <rect
         style="fill:#cccccc;fill-rule:evenodd;stroke:none"
         id="rect5434"
         width="85"
         height="240"
         x="1230.78"
         y="115.79874" />
      <rect
         y="115.79874"
         x="1392.4044"
         height="240"
         width="85"
         id="rect5436"
         style="fill:#cccccc;fill-rule:evenodd;stroke:none" />
      <rect
         style="fill:#cccccc;fill-rule:evenodd;stroke:none"
         id="rect5438"
         width="85"
         height="240"
         x="1554.0288"
         y="115.79874" />
      <path
         transform="translate(1057.686,200.60809)"
         d="m 434.3656,103.32387 c 0,8.08943 -6.55778,14.64721 -14.64722,14.64721 -8.08943,0 -14.64721,-6.55778 -14.64721,-14.64721 0,-8.089434 6.55778,-14.647214 14.64721,-14.647214 8.08944,0 14.64722,6.55778 14.64722,14.647214 z"
         sodipodi:ry="14.647212"
         sodipodi:rx="14.647212"
         sodipodi:cy="103.32387"
         sodipodi:cx="419.71838"
         id="path5440"
         style="fill:#ffaaaa;stroke:none"
         sodipodi:type="arc" />
      <text
         sodipodi:linespacing="125%"
         id="text5442"
         y="312.51825"
         x="1469.3529"
         style="font-size:23.5562458px;font-style:normal;font-weight:normal;line-height:125%;letter-spacing:0px;word-spacing:0px;fill:#000000;fill-opacity:1;stroke:none;font-family:Sans"
         xml:space="preserve"><tspan
           y="312.51825"
           x="1469.3529"
           id="tspan5444"
           sodipodi:role="line">B</tspan></text>
      <g
         transform="translate(977.85714,141.00909)"
         id="g5446">
        <path
           transform="translate(-5.1711426,59.599)"
           d="m 434.3656,103.32387 c 0,8.08943 -6.55778,14.64721 -14.64722,14.64721 -8.08943,0 -14.64721,-6.55778 -14.64721,-14.64721 0,-8.089434 6.55778,-14.647214 14.64721,-14.647214 8.08944,0 14.64722,6.55778 14.64722,14.647214 z"
           sodipodi:ry="14.647212"
           sodipodi:rx="14.647212"
           sodipodi:cy="103.32387"
           sodipodi:cx="419.71838"
           id="path5448"
           style="fill:#ffaaaa;stroke:none"
           sodipodi:type="arc" />
        <text
           sodipodi:linespacing="125%"
           id="text5450"
           y="171.50917"
           x="406.49579"
           style="font-size:23.5562458px;font-style:normal;font-weight:normal;line-height:125%;letter-spacing:0px;word-spacing:0px;fill:#000000;fill-opacity:1;stroke:none;font-family:Sans"
           xml:space="preserve"><tspan
             y="171.50917"
             x="406.49579"
             id="tspan5452"
             sodipodi:role="line">C</tspan></text>
      </g>
      <g
         transform="translate(1062.8571,-1.7900711)"
         id="g5454">
        <path
           transform="translate(-5.1711426,59.599)"
           d="m 434.3656,103.32387 c 0,8.08943 -6.55778,14.64721 -14.64722,14.64721 -8.08943,0 -14.64721,-6.55778 -14.64721,-14.64721 0,-8.089434 6.55778,-14.647214 14.64721,-14.647214 8.08944,0 14.64722,6.55778 14.64722,14.647214 z"
           sodipodi:ry="14.647212"
           sodipodi:rx="14.647212"
           sodipodi:cy="103.32387"
           sodipodi:cx="419.71838"
           id="path5456"
           style="fill:#ffaaaa;stroke:none"
           sodipodi:type="arc" />
        <text
           sodipodi:linespacing="125%"
           id="text5458"
           y="171.50917"
           x="406.49579"
           style="font-size:23.5562458px;font-style:normal;font-weight:normal;line-height:125%;letter-spacing:0px;word-spacing:0px;fill:#000000;fill-opacity:1;stroke:none;font-family:Sans"
           xml:space="preserve"><tspan
             y="171.50917"
             x="406.49579"
             id="tspan5460"
             sodipodi:role="line">A</tspan></text>
      </g>
      <g
         id="g5462"
         transform="translate(977.85714,-1.7900711)">
        <path
           sodipodi:type="arc"
           style="fill:#ffaaaa;stroke:none"
           id="path5464"
           sodipodi:cx="419.71838"
           sodipodi:cy="103.32387"
           sodipodi:rx="14.647212"
           sodipodi:ry="14.647212"
           d="m 434.3656,103.32387 c 0,8.08943 -6.55778,14.64721 -14.64722,14.64721 -8.08943,0 -14.64721,-6.55778 -14.64721,-14.64721 0,-8.089434 6.55778,-14.647214 14.64721,-14.647214 8.08944,0 14.64722,6.55778 14.64722,14.647214 z"
           transform="translate(-5.1711426,59.599)" />
        <text
           xml:space="preserve"
           style="font-size:23.5562458px;font-style:normal;font-weight:normal;line-height:125%;letter-spacing:0px;word-spacing:0px;fill:#000000;fill-opacity:1;stroke:none;font-family:Sans"
           x="406.49579"
           y="171.50917"
           id="text5466"
           sodipodi:linespacing="125%"><tspan
             sodipodi:role="line"
             id="tspan5468"
             x="406.49579"
             y="171.50917">D</tspan></text>
      </g>
      <path
         style="fill:none;stroke:#000000;stroke-width:1;stroke-linecap:butt;stroke-linejoin:miter;stroke-miterlimit:4;stroke-opacity:1;stroke-dasharray:1, 4;stroke-dashoffset:0;marker-start:none;marker-mid:url(#Arrow1Mend);marker-end:url(#Arrow1Mend)"
         d="m 1620.7143,97.362182 c -73.5714,-6.428572 -104.2857,-6.428577 -111.4286,2.857138 -7.1428,9.28572 -12.8571,29.28571 -6.4286,50 6.4286,20.71428 41.1749,96.13348 25,122.85715 -16.1748,26.72367 10.7282,67.95949 -6.4285,92.14285 -17.1567,24.18336 -53.5715,30.71429 -80.7143,31.42858 -27.1429,0.71428 -76.4046,-4.14137 -85.7143,-18.57143 -14.2857,-22.14286 -5,-61.42857 0.7143,-71.42857 5.7143,-10 4.488,-40.48335 -3.5714,-85.71429 -8.0595,-45.23094 -11.2407,-48.51491 -7.1429,-62.85714 4.0978,-14.34223 15,-26.42857 13.5714,-45 -1.4285,-18.571431 -12.369,-28.091258 -37.8571,-20.714288 -25.4881,7.376969 -55.1987,-2.866583 -82.2673,-0.657527 -30.4272,3.08122 -55.1455,22.396075 -60.5373,49.303135 -13.2798,66.27078 29.8465,139.20654 28.7745,176.65414 -1.9295,34.73444 -30.7921,43.54229 -36.367,83.94519"
         id="path5470"
         inkscape:connector-curvature="0"
         sodipodi:nodetypes="czzzzsszzzzzcscc" />
      <g
         transform="translate(42.886879,0)"
         id="g5478">
        <rect
           style="fill:#cccccc;fill-rule:evenodd;stroke:none"
           id="rect5472"
           width="85"
           height="240"
           x="1026.4943"
           y="115.79874" />
        <text
           xml:space="preserve"
           style="font-size:30.58390999px;font-style:normal;font-weight:normal;line-height:125%;letter-spacing:0px;word-spacing:0px;fill:#000000;fill-opacity:1;stroke:none;font-family:Sans"
           x="-336.24179"
           y="1080.3961"
           id="text5474"
           sodipodi:linespacing="125%"
           transform="matrix(0,-1,1,0,0,0)"><tspan
             sodipodi:role="line"
             id="tspan5476"
             x="-336.24179"
             y="1080.3961">Frozen Foods</tspan></text>
      </g>
      <g
         transform="translate(-21.594672,-27.142857)"
         id="g5489">
        <path
           transform="translate(756.25743,142.03666)"
           d="m 434.3656,103.32387 c 0,8.08943 -6.55778,14.64721 -14.64722,14.64721 -8.08943,0 -14.64721,-6.55778 -14.64721,-14.64721 0,-8.089434 6.55778,-14.647214 14.64721,-14.647214 8.08944,0 14.64722,6.55778 14.64722,14.647214 z"
           sodipodi:ry="14.647212"
           sodipodi:rx="14.647212"
           sodipodi:cy="103.32387"
           sodipodi:cx="419.71838"
           id="path5483"
           style="fill:#ffaaaa;stroke:none"
           sodipodi:type="arc" />
        <text
           sodipodi:linespacing="125%"
           id="text5485"
           y="253.94682"
           x="1167.9243"
           style="font-size:23.5562458px;font-style:normal;font-weight:normal;line-height:125%;letter-spacing:0px;word-spacing:0px;fill:#000000;fill-opacity:1;stroke:none;font-family:Sans"
           xml:space="preserve"><tspan
             y="253.94682"
             x="1167.9243"
             id="tspan5487"
             sodipodi:role="line">F</tspan></text>
      </g>
    </g>
    <g
       id="g5601"
       transform="matrix(0.55234138,0,0,0.55234138,-93.161017,58.451547)"
       inkscape:export-filename="/home/sam/src/quickshop/proposal/img/frozen-in-middle.png"
       inkscape:export-xdpi="90"
       inkscape:export-ydpi="90">
      <rect
         style="fill:#cccccc;fill-rule:evenodd;stroke:none"
         id="rect5534"
         width="85"
         height="240"
         x="1069.3811"
         y="560.26587" />
      <rect
         y="560.26587"
         x="1230.78"
         height="240"
         width="85"
         id="rect5494"
         style="fill:#cccccc;fill-rule:evenodd;stroke:none" />
      <rect
         style="fill:#cccccc;fill-rule:evenodd;stroke:none"
         id="rect5496"
         width="85"
         height="240"
         x="1392.4044"
         y="560.26587" />
      <rect
         y="560.26587"
         x="1554.0288"
         height="240"
         width="85"
         id="rect5498"
         style="fill:#cccccc;fill-rule:evenodd;stroke:none" />
      <path
         sodipodi:type="arc"
         style="fill:#ffaaaa;stroke:none"
         id="path5500"
         sodipodi:cx="419.71838"
         sodipodi:cy="103.32387"
         sodipodi:rx="14.647212"
         sodipodi:ry="14.647212"
         d="m 434.3656,103.32387 c 0,8.08943 -6.55778,14.64721 -14.64722,14.64721 -8.08943,0 -14.64721,-6.55778 -14.64721,-14.64721 0,-8.089434 6.55778,-14.647214 14.64721,-14.647214 8.08944,0 14.64722,6.55778 14.64722,14.647214 z"
         transform="translate(1057.686,645.07521)" />
      <text
         xml:space="preserve"
         style="font-size:23.5562458px;font-style:normal;font-weight:normal;line-height:125%;letter-spacing:0px;word-spacing:0px;fill:#000000;fill-opacity:1;stroke:none;font-family:Sans"
         x="1469.3529"
         y="756.98535"
         id="text5502"
         sodipodi:linespacing="125%"><tspan
           sodipodi:role="line"
           id="tspan5504"
           x="1469.3529"
           y="756.98535">B</tspan></text>
      <g
         id="g5506"
         transform="translate(739.83386,587.49652)">
        <path
           sodipodi:type="arc"
           style="fill:#ffaaaa;stroke:none"
           id="path5508"
           sodipodi:cx="419.71838"
           sodipodi:cy="103.32387"
           sodipodi:rx="14.647212"
           sodipodi:ry="14.647212"
           d="m 434.3656,103.32387 c 0,8.08943 -6.55778,14.64721 -14.64722,14.64721 -8.08943,0 -14.64721,-6.55778 -14.64721,-14.64721 0,-8.089434 6.55778,-14.647214 14.64721,-14.647214 8.08944,0 14.64722,6.55778 14.64722,14.647214 z"
           transform="translate(-5.1711426,59.599)" />
        <text
           xml:space="preserve"
           style="font-size:23.5562458px;font-style:normal;font-weight:normal;line-height:125%;letter-spacing:0px;word-spacing:0px;fill:#000000;fill-opacity:1;stroke:none;font-family:Sans"
           x="406.49579"
           y="171.50917"
           id="text5510"
           sodipodi:linespacing="125%"><tspan
             sodipodi:role="line"
             id="tspan5512"
             x="406.49579"
             y="171.50917">C</tspan></text>
      </g>
      <g
         id="g5514"
         transform="translate(1062.8571,442.67705)">
        <path
           sodipodi:type="arc"
           style="fill:#ffaaaa;stroke:none"
           id="path5516"
           sodipodi:cx="419.71838"
           sodipodi:cy="103.32387"
           sodipodi:rx="14.647212"
           sodipodi:ry="14.647212"
           d="m 434.3656,103.32387 c 0,8.08943 -6.55778,14.64721 -14.64722,14.64721 -8.08943,0 -14.64721,-6.55778 -14.64721,-14.64721 0,-8.089434 6.55778,-14.647214 14.64721,-14.647214 8.08944,0 14.64722,6.55778 14.64722,14.647214 z"
           transform="translate(-5.1711426,59.599)" />
        <text
           xml:space="preserve"
           style="font-size:23.5562458px;font-style:normal;font-weight:normal;line-height:125%;letter-spacing:0px;word-spacing:0px;fill:#000000;fill-opacity:1;stroke:none;font-family:Sans"
           x="406.49579"
           y="171.50917"
           id="text5518"
           sodipodi:linespacing="125%"><tspan
             sodipodi:role="line"
             id="tspan5520"
             x="406.49579"
             y="171.50917">A</tspan></text>
      </g>
      <g
         transform="translate(739.83386,444.69736)"
         id="g5522">
        <path
           transform="translate(-5.1711426,59.599)"
           d="m 434.3656,103.32387 c 0,8.08943 -6.55778,14.64721 -14.64722,14.64721 -8.08943,0 -14.64721,-6.55778 -14.64721,-14.64721 0,-8.089434 6.55778,-14.647214 14.64721,-14.647214 8.08944,0 14.64722,6.55778 14.64722,14.647214 z"
           sodipodi:ry="14.647212"
           sodipodi:rx="14.647212"
           sodipodi:cy="103.32387"
           sodipodi:cx="419.71838"
           id="path5524"
           style="fill:#ffaaaa;stroke:none"
           sodipodi:type="arc" />
        <text
           sodipodi:linespacing="125%"
           id="text5526"
           y="171.50917"
           x="406.49579"
           style="font-size:23.5562458px;font-style:normal;font-weight:normal;line-height:125%;letter-spacing:0px;word-spacing:0px;fill:#000000;fill-opacity:1;stroke:none;font-family:Sans"
           xml:space="preserve"><tspan
             y="171.50917"
             x="406.49579"
             id="tspan5528"
             sodipodi:role="line">D</tspan></text>
      </g>
      <path
         sodipodi:nodetypes="czzzzssszzszsssszc"
         inkscape:connector-curvature="0"
         id="path5530"
         d="m 1620.7143,541.8293 c -73.5714,-6.42857 -104.2857,-6.42858 -111.4286,2.85714 -7.1428,9.28572 -12.8571,29.28571 -6.4286,50 6.4286,20.71428 41.1749,96.13348 25,122.85715 -16.1748,26.72367 10.7282,67.95949 -6.4285,92.14285 -17.1567,24.18336 -55.4618,28.4935 -80.7143,31.42858 -14.1341,1.6428 -74.301,2.36603 -135.2049,-0.93865 -51.6612,-2.80316 -95.326,5.75601 -111.1237,-17.63278 -14.7494,-21.83671 -5,-61.42857 0.7143,-71.42857 5.7143,-10 4.488,-40.48335 -3.5714,-85.71429 -8.0595,-45.23094 -14.921,-49.14393 -14.2858,-62.14285 0,0 -7.8264,-22.52584 20.7143,-45.71429 28.5407,-23.18845 42.5102,-19.35151 87.9671,-21.37182 45.4569,-2.0203 65.6599,8.08123 74.7513,27.27412 9.0914,19.1929 -7.0711,32.32489 -12.1219,58.58885 -5.0507,26.26397 12.1219,35.35534 11.1117,79.80205 -1.0101,44.44671 -18.8252,25.8122 -18.6519,79.04571 0.1733,53.23351 22.6925,41.96007 22.6925,95.65992"
         style="fill:none;stroke:#000000;stroke-width:1;stroke-linecap:butt;stroke-linejoin:miter;stroke-miterlimit:4;stroke-opacity:1;stroke-dasharray:1, 4;stroke-dashoffset:0;marker-start:none;marker-mid:url(#Arrow1Mend);marker-end:url(#Arrow1Mend)" />
      <text
         xml:space="preserve"
         style="font-size:30.58390999px;font-style:normal;font-weight:normal;line-height:125%;letter-spacing:0px;word-spacing:0px;fill:#000000;fill-opacity:1;stroke:none;font-family:Sans"
         x="-780.70892"
         y="1284.6818"
         id="text5536"
         sodipodi:linespacing="125%"
         transform="matrix(0,-1,1,0,0,0)"><tspan
           sodipodi:role="line"
           id="tspan5538"
           x="-780.70892"
           y="1284.6818">Frozen Foods</tspan></text>
      <g
         id="g5540"
         transform="translate(139.80422,417.32426)">
        <path
           sodipodi:type="arc"
           style="fill:#ffaaaa;stroke:none"
           id="path5542"
           sodipodi:cx="419.71838"
           sodipodi:cy="103.32387"
           sodipodi:rx="14.647212"
           sodipodi:ry="14.647212"
           d="m 434.3656,103.32387 c 0,8.08943 -6.55778,14.64721 -14.64722,14.64721 -8.08943,0 -14.64721,-6.55778 -14.64721,-14.64721 0,-8.089434 6.55778,-14.647214 14.64721,-14.647214 8.08944,0 14.64722,6.55778 14.64722,14.647214 z"
           transform="translate(756.25743,142.03666)" />
        <text
           xml:space="preserve"
           style="font-size:23.5562458px;font-style:normal;font-weight:normal;line-height:125%;letter-spacing:0px;word-spacing:0px;fill:#000000;fill-opacity:1;stroke:none;font-family:Sans"
           x="1167.9243"
           y="253.94682"
           id="text5544"
           sodipodi:linespacing="125%"><tspan
             sodipodi:role="line"
             id="tspan5546"
             x="1167.9243"
             y="253.94682">F</tspan></text>
      </g>
    </g>
    <g
       transform="matrix(0.55113451,0,0,0.55113451,91.690625,99.362391)"
       id="g5849"
       inkscape:export-filename="/home/sam/src/quickshop/proposal/img/not-proximity.png"
       inkscape:export-xdpi="90"
       inkscape:export-ydpi="90">
      <rect
         style="fill:#cccccc;fill-rule:evenodd;stroke:none"
         id="rect5851"
         width="85"
         height="240"
         x="167.92284"
         y="115.79874" />
      <rect
         y="115.79874"
         x="329.54724"
         height="240"
         width="85"
         id="rect5853"
         style="fill:#cccccc;fill-rule:evenodd;stroke:none" />
      <rect
         style="fill:#cccccc;fill-rule:evenodd;stroke:none"
         id="rect5855"
         width="85"
         height="240"
         x="491.17163"
         y="115.79874" />
      <path
         transform="translate(-5.1711426,200.60809)"
         d="m 434.3656,103.32387 c 0,8.08943 -6.55778,14.64721 -14.64722,14.64721 -8.08943,0 -14.64721,-6.55778 -14.64721,-14.64721 0,-8.089434 6.55778,-14.647214 14.64721,-14.647214 8.08944,0 14.64722,6.55778 14.64722,14.647214 z"
         sodipodi:ry="14.647212"
         sodipodi:rx="14.647212"
         sodipodi:cy="103.32387"
         sodipodi:cx="419.71838"
         id="path5857"
         style="fill:#ffaaaa;stroke:none"
         sodipodi:type="arc" />
      <text
         sodipodi:linespacing="125%"
         id="text5859"
         y="312.51825"
         x="406.49579"
         style="font-size:23.5562458px;font-style:normal;font-weight:normal;line-height:125%;letter-spacing:0px;word-spacing:0px;fill:#000000;fill-opacity:1;stroke:none;font-family:Sans"
         xml:space="preserve"><tspan
           y="312.51825"
           x="406.49579"
           id="tspan5861"
           sodipodi:role="line">B</tspan></text>
      <g
         transform="translate(-85,141.00909)"
         id="g5863">
        <path
           transform="translate(-5.1711426,59.599)"
           d="m 434.3656,103.32387 c 0,8.08943 -6.55778,14.64721 -14.64722,14.64721 -8.08943,0 -14.64721,-6.55778 -14.64721,-14.64721 0,-8.089434 6.55778,-14.647214 14.64721,-14.647214 8.08944,0 14.64722,6.55778 14.64722,14.647214 z"
           sodipodi:ry="14.647212"
           sodipodi:rx="14.647212"
           sodipodi:cy="103.32387"
           sodipodi:cx="419.71838"
           id="path5865"
           style="fill:#ffaaaa;stroke:none"
           sodipodi:type="arc" />
        <text
           sodipodi:linespacing="125%"
           id="text5867"
           y="171.50917"
           x="406.49579"
           style="font-size:23.5562458px;font-style:normal;font-weight:normal;line-height:125%;letter-spacing:0px;word-spacing:0px;fill:#000000;fill-opacity:1;stroke:none;font-family:Sans"
           xml:space="preserve"><tspan
             y="171.50917"
             x="406.49579"
             id="tspan5869"
             sodipodi:role="line">C</tspan></text>
      </g>
      <g
         transform="translate(0,-1.7900711)"
         id="g5871">
        <path
           transform="translate(-5.1711426,59.599)"
           d="m 434.3656,103.32387 c 0,8.08943 -6.55778,14.64721 -14.64722,14.64721 -8.08943,0 -14.64721,-6.55778 -14.64721,-14.64721 0,-8.089434 6.55778,-14.647214 14.64721,-14.647214 8.08944,0 14.64722,6.55778 14.64722,14.647214 z"
           sodipodi:ry="14.647212"
           sodipodi:rx="14.647212"
           sodipodi:cy="103.32387"
           sodipodi:cx="419.71838"
           id="path5873"
           style="fill:#ffaaaa;stroke:none"
           sodipodi:type="arc" />
        <text
           sodipodi:linespacing="125%"
           id="text5875"
           y="171.50917"
           x="406.49579"
           style="font-size:23.5562458px;font-style:normal;font-weight:normal;line-height:125%;letter-spacing:0px;word-spacing:0px;fill:#000000;fill-opacity:1;stroke:none;font-family:Sans"
           xml:space="preserve"><tspan
             y="171.50917"
             x="406.49579"
             id="tspan5877"
             sodipodi:role="line">A</tspan></text>
      </g>
      <g
         id="g5879"
         transform="translate(-85,-1.7900711)">
        <path
           sodipodi:type="arc"
           style="fill:#ffaaaa;stroke:none"
           id="path5881"
           sodipodi:cx="419.71838"
           sodipodi:cy="103.32387"
           sodipodi:rx="14.647212"
           sodipodi:ry="14.647212"
           d="m 434.3656,103.32387 c 0,8.08943 -6.55778,14.64721 -14.64722,14.64721 -8.08943,0 -14.64721,-6.55778 -14.64721,-14.64721 0,-8.089434 6.55778,-14.647214 14.64721,-14.647214 8.08944,0 14.64722,6.55778 14.64722,14.647214 z"
           transform="translate(-5.1711426,59.599)" />
        <text
           xml:space="preserve"
           style="font-size:23.5562458px;font-style:normal;font-weight:normal;line-height:125%;letter-spacing:0px;word-spacing:0px;fill:#000000;fill-opacity:1;stroke:none;font-family:Sans"
           x="406.49579"
           y="171.50917"
           id="text5883"
           sodipodi:linespacing="125%"><tspan
             sodipodi:role="line"
             id="tspan5885"
             x="406.49579"
             y="171.50917">D</tspan></text>
      </g>
      <path
         style="fill:none;stroke:#000000;stroke-width:1;stroke-linecap:butt;stroke-linejoin:miter;stroke-miterlimit:4;stroke-opacity:1;stroke-dasharray:1, 4;stroke-dashoffset:0;marker-start:none;marker-mid:url(#Arrow1Mend);marker-end:url(#Arrow1Mend)"
         d="m 557.85714,97.362182 c -73.57143,-6.428572 -104.28571,-6.428577 -111.42857,2.857138 -7.14286,9.28572 -12.85714,29.28571 -6.42857,50 6.42857,20.71428 41.17485,96.13348 25,122.85715 -16.17485,26.72367 10.72811,67.95949 -6.42857,92.14285 -17.15668,24.18336 -53.57143,30.71429 -80.71429,31.42858 -27.14286,0.71428 -76.40456,-4.14137 -85.71428,-18.57143 -14.28572,-22.14286 -5.00001,-61.42857 0.71428,-71.42857 5.71429,-10 4.48804,-40.48335 -3.57142,-85.71429 -8.05946,-45.23094 -11.24063,-48.51491 -7.14286,-62.85714 4.09778,-14.34223 15.00001,-26.42857 13.57143,-45 -1.42857,-18.571431 -8.57143,-32.14286 -26.42858,-31.428574 -17.85714,0.714286 -23.57142,5.714286 -23.57142,5.714286"
         id="path5887"
         inkscape:connector-curvature="0"
         sodipodi:nodetypes="czzzzsszzzzzc" />
    </g>
  </g>
</svg>
